<?xml version="1.0" standalone="no"?>
<!DOCTYPE svg PUBLIC "-//W3C//DTD SVG 20010904//EN"
 "http://www.w3.org/TR/2001/REC-SVG-20010904/DTD/svg10.dtd">
<svg version="1.0" xmlns="http://www.w3.org/2000/svg"
 width="1024.000000pt" height="1024.000000pt" viewBox="0 0 1024.000000 1024.000000"
 preserveAspectRatio="xMidYMid meet">

<g transform="translate(0.000000,1024.000000) scale(0.100000,-0.100000)"
fill="#000000" stroke="none">
<path d="M4895 9039 c-236 -22 -535 -76 -738 -134 -469 -132 -976 -379 -1352
-659 -515 -384 -960 -926 -1241 -1513 -205 -426 -330 -858 -395 -1363 -19
-140 -19 -696 -1 -840 85 -682 298 -1270 655 -1805 408 -611 935 -1065 1612
-1391 799 -383 1720 -503 2612 -338 802 148 1571 546 2118 1098 182 183 415
472 557 691 317 490 527 1073 604 1683 21 169 30 626 14 808 -80 962 -525
1905 -1230 2603 -446 441 -1006 782 -1610 979 -286 94 -532 145 -845 177 -154
16 -608 18 -760 4z m815 -303 c589 -77 1077 -254 1570 -570 499 -319 932 -767
1247 -1291 362 -602 566 -1374 538 -2030 -37 -865 -318 -1607 -863 -2275 -111
-135 -394 -419 -495 -496 -385 -292 -642 -444 -968 -571 -396 -156 -740 -236
-1169 -274 -170 -15 -623 -6 -772 15 -584 83 -1001 218 -1472 478 -239 132
-576 381 -761 564 -758 748 -1152 1722 -1122 2769 22 755 255 1455 690 2075
497 709 1159 1197 1981 1459 254 81 511 130 861 165 103 10 616 -3 735 -18z"/>
<path d="M5760 8429 c-69 -12 -153 -52 -180 -86 -38 -48 -46 -97 -29 -179 8
-41 14 -74 14 -74 -1 0 -58 27 -126 59 -509 242 -1078 256 -1622 40 -410 -163
-772 -466 -1044 -875 -184 -274 -264 -479 -397 -1010 -36 -142 -85 -321 -110
-397 -54 -162 -57 -206 -19 -265 40 -61 89 -82 191 -82 51 0 82 -4 82 -11 0
-5 -17 -51 -38 -102 -52 -124 -57 -136 -91 -257 -66 -231 -100 -454 -108 -705
-13 -405 52 -770 199 -1129 193 -471 463 -829 888 -1177 262 -215 474 -368
602 -434 20 -10 35 -22 32 -27 -3 -4 2 -5 10 -2 8 3 25 -1 38 -10 31 -20 226
-99 319 -130 526 -171 1151 -178 1772 -20 146 38 332 102 450 156 87 39 280
149 366 207 34 23 66 39 71 36 6 -4 9 -2 8 3 -2 6 33 39 78 74 44 35 127 104
185 153 589 506 937 1150 1033 1910 52 411 14 819 -115 1239 -274 886 -965
1601 -1834 1897 -138 47 -137 45 -143 234 -6 223 30 331 167 490 81 95 101
131 101 181 0 49 -33 116 -73 150 -49 42 -162 91 -272 120 -113 28 -310 40
-405 23z m322 -154 c31 -8 88 -28 125 -45 l68 -31 -37 -30 c-73 -59 -154 -176
-195 -281 -10 -27 -22 -48 -26 -48 -5 0 -5 -4 -2 -10 3 -5 -2 -35 -12 -67 -27
-88 -25 -400 4 -538 14 -65 18 -102 11 -106 -5 -4 -2 -9 7 -13 11 -4 15 -13
12 -26 -3 -11 -2 -18 3 -15 4 2 15 -15 24 -39 18 -47 59 -92 74 -82 6 4 5 23
-4 51 l-13 45 27 -6 c43 -11 231 -74 309 -105 408 -161 843 -509 1096 -875 95
-137 137 -207 130 -217 -3 -5 -1 -7 4 -4 6 4 21 -15 34 -41 13 -26 27 -48 31
-50 4 -2 21 -38 39 -80 17 -42 34 -79 38 -82 3 -3 12 -18 19 -34 12 -28 12
-29 -5 -15 -17 13 -17 13 0 -7 9 -11 17 -26 17 -32 0 -7 5 -12 11 -12 5 0 7
-5 4 -10 -4 -6 -11 -8 -16 -5 -5 3 -6 -1 -3 -9 7 -19 20 -21 27 -3 4 9 6 9 6
0 1 -7 -8 -18 -19 -25 -20 -13 -29 -68 -11 -68 5 0 7 9 4 20 -3 11 0 20 6 20
6 0 11 -9 11 -20 0 -22 15 -27 24 -7 3 6 3 1 0 -12 -5 -19 -3 -23 10 -18 12 5
14 0 10 -26 -3 -23 -2 -27 4 -13 8 19 9 19 14 -2 4 -14 2 -20 -4 -16 -6 4 -8
-1 -3 -15 4 -12 2 -21 -4 -21 -6 0 -11 7 -11 15 0 10 -10 15 -30 15 l-30 0 0
-80 c0 -73 2 -80 20 -80 17 0 20 -7 20 -39 0 -22 5 -42 13 -44 9 -4 8 -8 -3
-16 -10 -7 -11 -11 -2 -11 20 0 13 -25 -10 -35 -13 -6 -24 -20 -26 -33 -2 -13
-10 -26 -18 -29 -11 -4 -12 -8 -3 -20 16 -18 29 0 29 40 0 15 5 27 10 27 6 0
10 -11 10 -24 0 -14 5 -28 10 -31 6 -3 10 -46 10 -95 0 -69 -3 -89 -14 -92
-13 -3 -13 -6 0 -22 14 -19 14 -19 14 2 0 12 5 22 10 22 6 0 10 -18 10 -40 0
-29 -4 -40 -15 -40 -8 0 -15 5 -15 11 0 5 -5 7 -11 3 -8 -5 -6 -10 5 -16 23
-13 20 -45 -6 -54 l-23 -8 25 -7 c22 -6 20 -7 -12 -8 -34 -1 -38 2 -38 24 0
19 -4 23 -17 18 -11 -4 -12 -8 -5 -11 7 -2 12 -25 12 -58 l0 -54 40 0 40 0 0
-40 c0 -33 3 -40 20 -40 11 0 20 -4 20 -10 0 -12 26 -14 33 -2 2 4 2 1 0 -6
-1 -8 -3 -34 -3 -58 0 -28 -4 -43 -10 -39 -6 3 -7 17 -4 31 7 28 -18 74 -41
74 -19 0 -20 -16 -1 -23 17 -7 26 -52 16 -86 -8 -23 -8 -22 -9 13 -1 46 -24
76 -59 76 -37 0 -62 -27 -62 -67 0 -18 -4 -33 -8 -33 -14 0 -8 76 7 94 16 20
15 22 -22 31 -17 5 -27 3 -27 -4 0 -6 5 -11 10 -11 6 0 9 -28 8 -70 -3 -59 -5
-68 -15 -53 -12 16 -13 16 -13 0 0 -9 -4 -17 -10 -17 -5 0 -10 4 -10 9 0 5 -3
23 -6 40 -5 24 -3 31 9 31 9 0 18 -8 21 -17 3 -10 3 11 1 46 -3 35 -5 86 -5
114 0 43 -2 48 -15 37 -9 -8 -15 -30 -15 -56 0 -40 -2 -44 -24 -44 -13 0 -26
5 -28 12 -3 7 -7 5 -11 -6 -4 -11 -3 -15 4 -10 8 5 9 -6 4 -35 -5 -29 -3 -41
6 -41 8 0 10 -15 6 -53 -3 -29 -3 -65 0 -80 5 -23 10 -27 39 -27 l34 0 0 -80
c0 -47 -4 -80 -10 -80 -5 0 -10 18 -10 40 0 38 -2 40 -30 40 -28 0 -30 -2 -32
-42 -1 -24 -1 -60 0 -80 3 -52 -16 -48 -21 5 -2 23 -3 5 -3 -40 1 -46 4 -83 9
-83 4 0 6 -17 6 -37 -1 -21 -3 -29 -6 -18 -2 11 -11 38 -19 59 -9 24 -13 53
-9 75 22 133 19 596 -5 716 -5 28 -13 68 -16 90 -3 22 -9 45 -14 50 -4 6 -18
55 -30 110 -109 484 -386 988 -735 1340 -352 356 -779 605 -1240 725 -95 25
-269 60 -295 60 -31 0 -34 19 -10 71 l23 49 114 2 c62 0 119 1 126 2 6 1 10
-6 8 -14 -14 -55 -13 -60 7 -60 29 0 81 64 126 156 145 294 186 699 102 1012
-11 40 -12 54 -3 57 48 17 201 11 289 -10z m-1307 -195 c164 -19 403 -79 449
-113 17 -12 6 -15 -95 -20 -123 -6 -188 -18 -405 -73 l-142 -36 -46 36 c-72
55 -153 70 -220 42 -38 -16 -66 -51 -66 -82 0 -24 29 -38 108 -50 23 -4 44
-10 47 -14 2 -4 -31 -22 -73 -40 -112 -49 -262 -124 -336 -169 -35 -22 -68
-36 -72 -31 -5 4 -37 18 -72 30 -47 17 -74 21 -113 17 -95 -11 -179 -81 -179
-149 l0 -28 58 5 c31 3 76 8 100 10 23 3 42 1 41 -3 0 -4 -35 -35 -77 -69
-200 -160 -380 -356 -517 -563 -129 -196 -153 -248 -123 -278 32 -32 42 -23
296 271 214 247 425 435 644 572 56 35 104 63 106 61 2 -3 -9 -23 -25 -47 -26
-39 -28 -50 -28 -133 0 -98 19 -149 58 -162 29 -9 41 11 77 121 37 115 83 211
140 294 38 57 44 61 147 104 107 45 263 100 269 94 2 -1 -3 -21 -11 -42 -19
-53 -18 -106 1 -154 39 -98 95 -44 168 159 15 41 32 78 39 82 11 7 126 22 157
22 64 -2 83 -5 77 -10 -3 -3 -23 -6 -44 -7 -21 0 -30 -2 -21 -4 10 -3 17 -12
16 -21 -3 -37 3 -63 12 -57 6 3 7 -1 4 -9 -3 -9 -3 -16 1 -16 11 0 32 25 39
48 9 29 26 28 27 0 0 -22 1 -22 10 -3 6 14 7 7 3 -25 -14 -113 -129 -447 -151
-443 -6 1 -9 -6 -6 -16 2 -10 -1 -24 -9 -32 -7 -8 -29 -45 -48 -82 -42 -82
-56 -96 -65 -68 -7 23 -25 29 -25 9 0 -9 -4 -8 -10 2 -11 17 -13 9 -4 -15 5
-13 9 -14 15 -3 7 11 11 10 19 -2 12 -18 7 -36 -9 -32 -7 1 -10 -2 -6 -8 13
-21 -146 -224 -177 -225 -7 -1 -12 -7 -10 -15 4 -18 -129 -152 -146 -145 -7 3
-11 1 -7 -4 3 -5 -23 -34 -57 -65 -46 -41 -68 -54 -83 -50 -13 3 -16 2 -8 -3
15 -11 6 -19 -94 -86 -44 -30 -77 -46 -85 -41 -7 4 -10 4 -6 -1 9 -10 -23 -34
-97 -72 -33 -17 -73 -38 -90 -47 -182 -95 -414 -179 -680 -245 -186 -46 -224
-54 -241 -47 -8 3 -13 2 -10 -3 3 -4 -20 -11 -52 -15 -31 -3 -97 -13 -147 -21
-189 -30 -334 -47 -349 -42 -9 4 -13 16 -11 33 2 25 1 26 -10 10 -8 -10 -11
-25 -8 -34 4 -10 2 -13 -5 -8 -6 3 -13 2 -17 -4 -3 -5 -10 -10 -15 -10 -4 0 8
44 27 98 19 53 63 214 98 357 74 301 100 389 151 517 176 446 511 843 892
1060 205 117 451 203 667 232 122 17 319 19 440 6z m797 -286 c14 -4 16 -14
11 -62 -7 -81 -41 -246 -59 -293 -16 -38 -17 -39 -66 -39 -42 0 -49 2 -44 18
37 121 63 253 67 332 1 25 4 49 7 53 3 7 38 4 84 -9z m-375 -80 c-3 -3 -12 -4
-19 -1 -8 3 -5 6 6 6 11 1 17 -2 13 -5z m143 -965 c624 -113 1185 -471 1562
-994 180 -251 331 -571 403 -855 123 -485 112 -922 -35 -1371 -207 -634 -682
-1125 -1340 -1387 -429 -171 -925 -219 -1410 -137 -514 87 -909 284 -1242 622
-217 220 -344 393 -471 644 -120 235 -195 474 -239 754 -29 188 -32 572 -5
740 44 272 118 526 211 720 l53 110 109 13 c640 76 1170 268 1614 585 173 123
428 383 536 546 l28 43 60 -7 c34 -4 108 -16 166 -26z m2560 -1345 c0 -8 -4
-12 -10 -9 -5 3 -10 10 -10 16 0 5 5 9 10 9 6 0 10 -7 10 -16z m42 -198 c3 5
3 3 2 -3 -2 -7 4 -27 12 -45 l15 -33 -5 40 -5 40 15 -29 c17 -31 9 -47 -26
-53 -17 -2 -19 2 -15 30 4 24 3 27 -4 12 -7 -16 -8 -13 -8 17 1 21 4 33 8 27
4 -6 9 -7 11 -3z m75 -218 c-3 -8 -6 -5 -6 6 -1 11 2 17 5 13 3 -3 4 -12 1
-19z m0 -80 c-3 -8 -6 -5 -6 6 -1 11 2 17 5 13 3 -3 4 -12 1 -19z m20 -10 c-3
-7 -5 -2 -5 12 0 14 2 19 5 13 2 -7 2 -19 0 -25z m-10 -40 c-3 -8 -6 -5 -6 6
-1 11 2 17 5 13 3 -3 4 -12 1 -19z m20 -35 c-3 -10 -5 -2 -5 17 0 19 2 27 5
18 2 -10 2 -26 0 -35z m-24 -35 c-8 -46 -13 -48 -13 -5 0 21 4 37 10 37 5 0 7
-14 3 -32z m34 -20 c-3 -7 -5 -2 -5 12 0 14 2 19 5 13 2 -7 2 -19 0 -25z m-20
-40 c-3 -8 -6 -5 -6 6 -1 11 2 17 5 13 3 -3 4 -12 1 -19z m24 -15 c-12 -20
-14 -14 -5 12 4 9 9 14 11 11 3 -2 0 -13 -6 -23z m16 -90 c-3 -10 -5 -4 -5 12
0 17 2 24 5 18 2 -7 2 -21 0 -30z m-27 -328 c0 -14 -4 -25 -10 -25 -5 0 -10
11 -10 25 0 14 5 25 10 25 6 0 10 -11 10 -25z m-138 -83 c-7 -2 -12 -10 -12
-18 0 -8 -10 -14 -24 -14 -14 0 -28 -4 -31 -10 -8 -12 -45 -13 -45 -1 0 5 14
11 30 15 27 5 43 26 20 26 -5 0 -10 4 -10 10 0 5 13 7 29 4 18 -4 32 -1 37 7
6 10 9 10 12 -1 3 -8 0 -16 -6 -18z m-92 -136 c0 -2 -7 -6 -15 -10 -8 -3 -15
-1 -15 4 0 6 7 10 15 10 8 0 15 -2 15 -4z m52 -18 c21 -34 29 -58 18 -58 -6 0
-10 6 -10 14 0 7 -9 25 -21 40 -11 14 -16 26 -11 26 5 0 16 -10 24 -22z m38
12 c0 -5 -4 -10 -10 -10 -5 0 -10 5 -10 10 0 6 5 10 10 10 6 0 10 -4 10 -10z
m-118 -49 c3 -21 1 -28 -9 -24 -14 5 -18 35 -6 46 10 10 10 9 15 -22z m125
-13 c-3 -8 -6 -5 -6 6 -1 11 2 17 5 13 3 -3 4 -12 1 -19z m-134 -66 c5 -7 7
-16 3 -19 -11 -11 -26 19 -25 47 1 21 2 21 6 5 3 -11 10 -26 16 -33z m127 18
c0 -11 -4 -20 -10 -20 -5 0 -10 9 -10 20 0 11 5 20 10 20 6 0 10 -9 10 -20z
m-80 -31 c0 -5 -4 -9 -10 -9 -5 0 -10 7 -10 16 0 8 5 12 10 9 6 -3 10 -10 10
-16z m198 -49 c0 -9 -3 -7 -8 5 -5 11 -8 29 -8 40 0 16 2 15 8 -5 4 -14 8 -32
8 -40z m-351 -2 c-3 -7 -5 -2 -5 12 0 14 2 19 5 13 2 -7 2 -19 0 -25z m-52
-78 c-4 -23 -9 -39 -11 -37 -3 2 -2 23 2 46 4 23 9 40 11 37 3 -3 2 -23 -2
-46z m242 44 c-3 -3 -12 -4 -19 -1 -8 3 -5 6 6 6 11 1 17 -2 13 -5z m-220 -71
c-3 -10 -5 -4 -5 12 0 17 2 24 5 18 2 -7 2 -21 0 -30z m-7 -63 c0 -16 -4 -30
-10 -30 -5 0 -10 -18 -10 -41 0 -28 -4 -39 -12 -37 -17 6 -23 57 -9 71 6 6 11
16 11 22 0 5 -5 3 -10 -5 -5 -8 -10 -10 -10 -5 0 13 32 55 43 55 4 0 7 -13 7
-30z m78 -85 c22 -27 38 -32 44 -13 3 9 10 8 22 -5 10 -10 15 -21 12 -25 -4
-3 -11 0 -17 8 -6 11 -11 12 -17 3 -4 -6 -20 -13 -36 -15 -40 -4 -57 -33 -32
-51 14 -11 16 -16 6 -22 -17 -11 -32 15 -26 47 3 15 0 29 -7 32 -9 5 -9 7 1
12 6 3 12 17 12 30 0 31 13 31 38 -1z m-119 -65 c0 -10 -3 -8 -8 5 -7 16 -9
14 -16 -15 -5 -22 -9 -29 -12 -18 -2 9 1 26 6 37 6 11 8 28 5 38 -3 10 2 7 10
-7 8 -14 15 -32 15 -40z m47 6 c21 -21 17 -46 -6 -46 -16 0 -20 7 -20 30 0 34
5 37 26 16z m-106 -113 c-11 -17 -11 -17 -6 0 3 10 6 24 7 30 0 9 2 9 5 0 3
-7 0 -20 -6 -30z m29 -7 c-9 -8 -10 -7 -5 7 3 10 7 24 7 30 1 7 3 4 6 -7 3
-10 -1 -23 -8 -30z m18 -92 c-3 -3 -12 -4 -19 -1 -8 3 -5 6 6 6 11 1 17 -2 13
-5z m93 -3 c0 -4 -12 -6 -27 -4 -26 4 -27 3 -10 -10 16 -14 15 -15 -20 -19
-47 -6 -49 -5 -26 20 18 20 83 30 83 13z m-110 -46 c0 -8 -4 -15 -10 -15 -5 0
-10 7 -10 15 0 8 5 15 10 15 6 0 10 -7 10 -15z m-10 -29 c0 -3 -4 -8 -10 -11
-5 -3 -10 -1 -10 4 0 6 5 11 10 11 6 0 10 -2 10 -4z m-24 -43 c-3 -4 -6 -1 -6
6 0 7 -4 9 -10 6 -11 -7 -14 8 -3 19 4 3 11 -1 16 -9 5 -9 6 -19 3 -22z m242
-27 c-15 -30 -16 -30 -14 -3 0 13 6 24 13 24 9 0 9 -6 1 -21z m-188 -72 c0 -4
-11 3 -25 16 -14 13 -25 30 -25 38 0 7 11 0 25 -16 14 -17 25 -33 25 -38z
m160 56 c0 -5 -2 -10 -4 -10 -3 0 -8 5 -11 10 -3 6 -1 10 4 10 6 0 11 -4 11
-10z m-12 -60 c-16 -29 -24 -37 -31 -28 -6 9 -7 5 -3 -11 3 -17 2 -21 -6 -13
-13 13 -2 46 12 37 6 -4 15 7 21 24 6 17 15 31 19 31 5 0 -1 -18 -12 -40z
m-325 15 c-3 -9 -8 -14 -10 -11 -3 3 -2 9 2 15 9 16 15 13 8 -4z m137 -15 c0
-5 -4 -10 -10 -10 -5 0 -10 5 -10 10 0 6 5 10 10 10 6 0 10 -4 10 -10z m-92
-40 l27 0 -29 -15 c-34 -18 -33 -18 -36 15 -3 35 2 50 7 23 3 -17 11 -23 31
-23z m-67 -23 c-13 -13 -15 1 -4 30 7 17 8 17 11 -1 2 -10 -1 -23 -7 -29z m16
-49 c-3 -8 -6 -5 -6 6 -1 11 2 17 5 13 3 -3 4 -12 1 -19z m273 12 c0 -5 -5
-10 -11 -10 -5 0 -7 5 -4 10 3 6 8 10 11 10 2 0 4 -4 4 -10z m-364 -72 c-9
-12 -16 -19 -16 -15 0 11 24 47 28 42 2 -2 -3 -14 -12 -27z m305 -15 c-12 -20
-14 -14 -5 12 4 9 9 14 11 11 3 -2 0 -13 -6 -23z m-351 -84 c0 -6 -4 -7 -10
-4 -5 3 -10 11 -10 16 0 6 5 7 10 4 6 -3 10 -11 10 -16z m4 -27 c3 8 5 5 3 -5
-3 -27 -17 -25 -35 3 -16 25 -16 25 5 7 16 -14 22 -15 27 -5z m9 -39 c12 2 16
2 8 0 -12 -4 -12 -6 0 -14 11 -7 9 -9 -6 -9 -11 0 -31 -7 -43 -16 -24 -17 -31
-4 -7 16 13 10 13 14 0 27 -8 8 -20 11 -27 7 -10 -6 -10 -4 0 8 12 15 15 15
33 -3 11 -11 29 -18 42 -16z m172 -3 c-3 -5 -1 -19 6 -31 8 -16 8 -20 -1 -14
-7 4 -10 1 -8 -8 3 -15 -81 -104 -95 -99 -5 1 -6 -1 -3 -6 3 -5 -7 -20 -21
-33 l-27 -24 19 30 c18 30 18 30 -1 15 -10 -8 -25 -22 -32 -30 -12 -13 -13
-12 -7 5 4 11 7 24 8 30 1 5 14 15 29 22 15 6 37 27 48 45 11 18 20 29 20 23
0 -5 6 -3 13 6 7 8 20 18 31 22 11 5 16 13 12 23 -6 15 0 34 10 34 3 0 2 -4
-1 -10z m-302 -80 c-3 -12 -8 -19 -11 -16 -5 6 5 36 12 36 2 0 2 -9 -1 -20z
m147 -144 c0 -2 -8 -10 -17 -17 -16 -13 -17 -12 -4 4 13 16 21 21 21 13z m-80
-80 c0 -2 -6 -9 -14 -15 -11 -9 -16 -9 -22 0 -4 7 -3 9 4 5 6 -3 13 -2 17 4 6
10 15 14 15 6z m-86 -75 c3 -5 -2 -15 -12 -22 -15 -12 -16 -12 -5 2 7 9 10 19
6 22 -3 4 -4 7 0 7 3 0 8 -4 11 -9z m-340 -79 c2 -4 -4 -8 -14 -8 -10 0 -16 4
-14 8 3 4 9 8 14 8 5 0 11 -4 14 -8z m206 -38 c0 -2 -9 0 -20 6 -11 6 -20 13
-20 16 0 2 9 0 20 -6 11 -6 20 -13 20 -16z m-261 4 c-2 -2 -17 -14 -34 -28
l-30 -25 24 28 c14 15 29 27 34 27 6 0 8 -1 6 -2z m157 -77 c-7 -11 -76 -52
-76 -46 0 4 70 53 78 54 2 1 1 -3 -2 -8z m-318 -46 c-20 -14 -40 -25 -45 -25
-11 0 60 49 72 50 5 0 -7 -11 -27 -25z m172 -49 c0 -2 -7 -7 -16 -10 -8 -3
-12 -2 -9 4 6 10 25 14 25 6z m-120 -57 c0 -5 5 -7 12 -3 6 4 8 3 5 -4 -4 -5
-17 -8 -30 -5 -18 4 -19 3 -7 -6 13 -9 13 -11 -1 -11 -25 0 -30 12 -11 26 21
16 32 17 32 3z m-340 -169 c-20 -13 -33 -13 -25 0 3 6 14 10 23 10 15 0 15 -2
2 -10z m-45 -10 c3 -6 -1 -7 -9 -4 -18 7 -21 14 -7 14 6 0 13 -4 16 -10z m-25
-14 c0 -2 -7 -6 -15 -10 -8 -3 -15 -1 -15 4 0 6 7 10 15 10 8 0 15 -2 15 -4z
m-184 -57 c-16 -4 -35 -5 -43 -1 -7 5 5 8 30 9 38 1 39 0 13 -8z m-53 -16 c-7
-2 -19 -2 -25 0 -7 3 -2 5 12 5 14 0 19 -2 13 -5z"/>
<path d="M6614 6652 c-38 -30 -39 -58 -5 -92 72 -72 163 4 100 84 -24 31 -63
34 -95 8z"/>
<path d="M7004 6410 c-58 -22 -71 -100 -27 -157 34 -44 99 -86 124 -80 11 3
17 1 13 -4 -8 -13 33 -11 59 3 48 25 59 70 33 131 -16 39 -51 71 -66 62 -6 -3
-9 -1 -8 6 6 25 -89 54 -128 39z"/>
<path d="M7288 5903 c-38 -44 -28 -99 30 -160 35 -37 71 -49 100 -34 30 16 39
13 16 -4 -22 -16 -12 -20 16 -5 24 13 44 73 35 107 -8 33 -38 72 -73 95 -35
23 -104 24 -124 1z m50 -123 c-7 -10 -14 -18 -15 -16 -6 6 9 36 18 36 5 0 4
-9 -3 -20z m126 -33 c-2 -7 -19 -14 -37 -15 l-32 -1 35 13 c19 8 36 14 37 15
1 0 0 -5 -3 -12z m-68 -34 c-6 -6 -45 11 -50 22 -3 10 3 9 24 -3 16 -9 28 -18
26 -19z"/>
<path d="M7540 5372 c-26 -21 -30 -64 -7 -86 19 -19 41 -12 55 17 10 21 11 21
11 -5 1 -14 -5 -28 -11 -31 -8 -2 -7 -3 2 -3 10 1 16 15 19 41 3 36 5 37 11
15 8 -24 8 -23 9 7 2 57 -45 81 -89 45z"/>
<path d="M7794 4695 c-8 -32 19 -75 46 -75 26 0 45 40 36 74 -5 22 -12 26 -41
26 -29 0 -36 -4 -41 -25z"/>
<path d="M7661 4654 c0 -11 3 -14 6 -6 3 7 2 16 -1 19 -3 4 -6 -2 -5 -13z"/>
<path d="M7780 4611 c0 -12 -4 -21 -10 -21 -5 0 -10 -5 -10 -10 0 -6 8 -5 20
2 22 14 26 33 10 43 -5 3 -10 -3 -10 -14z"/>
<path d="M7880 4610 c-12 -8 -10 -10 8 -10 13 0 20 4 17 10 -7 12 -6 12 -25 0z"/>
<path d="M7798 4563 c6 -2 18 -2 25 0 6 3 1 5 -13 5 -14 0 -19 -2 -12 -5z"/>
<path d="M7840 4388 c0 -10 67 -11 73 0 3 4 -13 7 -34 7 -21 1 -39 -3 -39 -7z"/>
<path d="M7671 4174 c0 -11 3 -14 6 -6 3 7 2 16 -1 19 -3 4 -6 -2 -5 -13z"/>
<path d="M7656 4085 c-3 -9 -6 -24 -5 -33 0 -9 5 -4 10 12 9 32 6 48 -5 21z"/>
<path d="M7642 3900 c0 -14 2 -19 5 -12 2 6 2 18 0 25 -3 6 -5 1 -5 -13z"/>
<path d="M5056 7635 c-3 -9 -6 -22 -5 -28 0 -7 5 -1 10 12 5 13 8 26 5 28 -2
2 -6 -3 -10 -12z"/>
<path d="M5086 7632 c-2 -4 -1 -32 4 -62 l8 -55 1 63 c1 59 -2 72 -13 54z"/>
<path d="M5142 7560 c0 -14 2 -19 5 -12 2 6 2 18 0 25 -3 6 -5 1 -5 -13z"/>
<path d="M5165 7571 c-3 -5 -1 -12 5 -16 5 -3 10 1 10 9 0 18 -6 21 -15 7z"/>
<path d="M5122 7545 c0 -16 2 -22 5 -12 2 9 2 23 0 30 -3 6 -5 -1 -5 -18z"/>
<path d="M5151 7484 c0 -11 3 -14 6 -6 3 7 2 16 -1 19 -3 4 -6 -2 -5 -13z"/>
<path d="M5132 7435 c-7 -14 -12 -31 -12 -38 1 -7 7 3 16 22 17 39 13 54 -4
16z"/>
<path d="M5017 7413 c-11 -10 -8 -43 3 -43 6 0 10 11 10 25 0 26 -2 29 -13 18z"/>
<path d="M5065 7350 c3 -5 8 -10 11 -10 2 0 4 5 4 10 0 6 -5 10 -11 10 -5 0
-7 -4 -4 -10z"/>
<path d="M5097 7342 c-10 -10 -17 -30 -17 -45 0 -14 -4 -28 -9 -31 -5 -3 -11
-16 -14 -28 -6 -22 -6 -22 9 -3 8 11 19 38 25 60 6 22 16 46 21 53 16 19 3 14
-15 -6z"/>
<path d="M5052 7300 c0 -19 2 -27 5 -17 2 9 2 25 0 35 -3 9 -5 1 -5 -18z"/>
<path d="M4503 7283 c-117 -150 -149 -281 -87 -348 49 -53 138 -19 183 70 39
75 36 152 -9 241 -19 37 -40 69 -46 71 -7 2 -25 -13 -41 -34z"/>
<path d="M4942 7270 c0 -14 2 -19 5 -12 2 6 2 18 0 25 -3 6 -5 1 -5 -13z"/>
<path d="M4960 7190 c6 -11 13 -20 16 -20 2 0 0 9 -6 20 -6 11 -13 20 -16 20
-2 0 0 -9 6 -20z"/>
<path d="M4856 7134 c-3 -9 -12 -14 -20 -11 -9 4 -16 -3 -19 -19 -5 -26 7 -33
17 -9 3 8 16 15 28 16 13 0 18 3 11 5 -7 3 -9 12 -6 20 3 8 3 14 0 14 -3 0 -8
-7 -11 -16z"/>
<path d="M4850 7060 c-9 -16 -8 -20 5 -20 8 0 15 2 15 4 0 2 3 11 6 20 9 23
-13 20 -26 -4z"/>
<path d="M4807 7043 c-14 -4 -17 -11 -12 -30 3 -14 13 -32 20 -40 13 -13 15
-9 15 31 0 25 -1 45 -2 45 -2 -1 -11 -3 -21 -6z"/>
<path d="M4758 6963 c6 -2 12 -11 12 -19 0 -8 7 -14 15 -14 8 0 15 2 15 4 0
10 -32 36 -43 35 -9 0 -8 -2 1 -6z"/>
<path d="M4725 6930 c-3 -5 -1 -10 4 -10 6 0 11 5 11 10 0 6 -2 10 -4 10 -3 0
-8 -4 -11 -10z"/>
<path d="M4720 6895 c0 -8 7 -15 15 -15 8 0 15 7 15 15 0 8 -7 15 -15 15 -8 0
-15 -7 -15 -15z"/>
<path d="M3929 6847 c-82 -82 -118 -158 -119 -249 0 -50 4 -62 28 -89 73 -82
189 7 200 152 5 67 -18 157 -51 195 l-23 26 -35 -35z"/>
<path d="M4805 6869 c-4 -6 -5 -12 -2 -15 2 -3 7 2 10 11 7 17 1 20 -8 4z"/>
<path d="M3624 6815 c-20 -31 -15 -56 16 -72 21 -10 26 -10 30 3 3 9 10 14 14
12 19 -7 30 30 18 56 -15 34 -56 35 -78 1z"/>
<path d="M4686 6824 c-9 -24 0 -29 19 -11 19 19 19 27 1 27 -8 0 -17 -7 -20
-16z"/>
<path d="M4542 6734 c-7 -8 -8 -14 -3 -14 10 0 25 19 20 25 -2 1 -10 -3 -17
-11z"/>
<path d="M4643 6692 c-1 -16 2 -20 7 -12 4 7 13 10 19 6 7 -4 9 -1 5 8 -10 26
-29 25 -31 -2z"/>
<path d="M4409 6653 c-18 -20 -19 -23 -4 -13 32 24 47 40 37 40 -4 0 -19 -12
-33 -27z"/>
<path d="M4533 6665 c-18 -20 -16 -25 7 -25 13 0 20 7 20 20 0 23 -10 25 -27
5z"/>
<path d="M4487 6549 c7 -7 15 -10 18 -7 3 3 -2 9 -12 12 -14 6 -15 5 -6 -5z"/>
<path d="M4260 6529 c0 -5 5 -7 10 -4 6 3 10 8 10 11 0 2 -4 4 -10 4 -5 0 -10
-5 -10 -11z"/>
<path d="M4280 6390 c0 -5 5 -10 11 -10 5 0 7 5 4 10 -3 6 -8 10 -11 10 -2 0
-4 -4 -4 -10z"/>
<path d="M4035 6350 c-3 -5 1 -10 9 -10 9 0 16 5 16 10 0 6 -4 10 -9 10 -6 0
-13 -4 -16 -10z"/>
<path d="M4095 6300 c-3 -5 -1 -10 4 -10 6 0 11 5 11 10 0 6 -2 10 -4 10 -3 0
-8 -4 -11 -10z"/>
<path d="M3378 6133 c6 -2 18 -2 25 0 6 3 1 5 -13 5 -14 0 -19 -2 -12 -5z"/>
<path d="M3568 6073 c-39 -6 -35 -20 5 -19 20 1 34 6 34 14 0 6 -3 11 -6 11
-3 -1 -18 -4 -33 -6z"/>
<path d="M3018 6063 c7 -3 16 -2 19 1 4 3 -2 6 -13 5 -11 0 -14 -3 -6 -6z"/>
<path d="M2625 5999 c-4 -6 -5 -12 -2 -15 2 -3 7 2 10 11 7 17 1 20 -8 4z"/>
<path d="M3295 5980 c-16 -7 -17 -9 -3 -9 9 -1 20 4 23 9 7 11 7 11 -20 0z"/>
<path d="M3350 5970 c-9 -6 -10 -10 -3 -10 6 0 15 5 18 10 8 12 4 12 -15 0z"/>
<path d="M2988 5893 c7 -3 16 -2 19 1 4 3 -2 6 -13 5 -11 0 -14 -3 -6 -6z"/>
<path d="M5875 4679 c-81 -28 -131 -64 -185 -131 -74 -92 -108 -220 -90 -334
28 -172 166 -307 344 -336 166 -27 344 71 420 232 29 60 31 73 31 176 0 105
-1 113 -34 177 -92 182 -310 279 -486 216z m141 -155 c73 -49 70 -170 -6 -209
-86 -44 -189 11 -190 103 0 41 14 70 48 99 33 28 110 31 148 7z"/>
<path d="M3991 4650 c-112 -24 -211 -104 -262 -215 -30 -62 -33 -79 -34 -160
0 -82 3 -96 33 -157 41 -84 100 -143 182 -182 55 -26 76 -30 145 -30 69 0 90
4 147 31 85 40 151 105 191 191 28 59 32 77 32 152 -1 64 -7 99 -24 143 -29
75 -118 168 -193 202 -61 27 -153 38 -217 25z m82 -151 c38 -19 57 -51 57 -97
0 -62 -40 -102 -104 -102 -62 0 -105 37 -113 97 -5 39 -2 46 30 78 38 38 86
47 130 24z"/>
<path d="M5058 4025 c-154 -80 -275 -85 -431 -16 -57 25 -88 26 -127 6 -34
-17 -55 -71 -45 -116 22 -99 219 -186 400 -176 128 6 216 37 311 107 66 49 91
99 75 150 -25 82 -83 97 -183 45z"/>
<path d="M6199 3405 c42 -19 50 -19 25 0 -10 8 -28 14 -39 14 -14 0 -10 -4 14
-14z"/>
<path d="M6140 3385 c-7 -9 -11 -17 -9 -20 3 -2 10 5 17 15 14 24 10 26 -8 5z"/>
<path d="M4818 2753 c6 -2 18 -2 25 0 6 3 1 5 -13 5 -14 0 -19 -2 -12 -5z"/>
<path d="M4780 2735 c-8 -9 -8 -15 -2 -15 12 0 26 19 19 26 -2 2 -10 -2 -17
-11z"/>
<path d="M7380 2690 c0 -5 5 -10 10 -10 6 0 10 5 10 10 0 6 -4 10 -10 10 -5 0
-10 -4 -10 -10z"/>
</g>
</svg>
